<svg xmlns="http://www.w3.org/2000/svg" viewBox="0 0 360 80" fill="none">
  <defs>
    <linearGradient id="lockupGrad" x1="0%" y1="0%" x2="100%" y2="100%">
      <stop offset="0%" stop-color="#0e7a63"/>
      <stop offset="100%" stop-color="#e0762f"/>
    </linearGradient>
  </defs>
  <g transform="translate(10, 10)">
    <rect width="60" height="60" rx="16" fill="url(#lockupGrad)"/>
    <path d="M20 42 C17 38 16 33 16 27 C16 18 22 13 30 13 C38 13 44 18 44 27 C44 34 39 39 32 40 C28 41 26 39 24 36 C23 34 23 29 28 27 C31 25 37 26 40 29" 
          stroke="#ffffff" stroke-width="4" stroke-linecap="round" stroke-linejoin="round"/>
    <circle cx="30" cy="27" r="3" fill="#ffffff"/>
  </g>
  <text x="85" y="48" font-family="'Noto Serif Bengali', serif" font-weight="900" font-size="34" fill="#1c2321" letter-spacing="-0.5">সন্ধান</text>
  <text x="85" y="65" font-family="'Noto Sans Bengali', sans-serif" font-weight="500" font-size="12" fill="#0e7a63" letter-spacing="1.5">উন্মুক্ত · গোপনীয়তা-প্রথম</text>
</svg>
